<svg version="1.1" id="Layer_1" xmlns="http://www.w3.org/2000/svg" xmlns:xlink="http://www.w3.org/1999/xlink" x="0px" y="0px"
	 width="100%" viewBox="0 0 1000 1000" enable-background="new 0 0 1000 1000" xml:space="preserve">
<path fill="#FC8700" opacity="1.000000" stroke="none" 
	d="
M483.000000,1001.000000 
	C322.000000,1001.000000 161.500000,1001.000000 1.000000,1001.000000 
	C1.000000,667.666687 1.000000,334.333344 1.000000,1.000000 
	C334.333344,1.000000 667.666687,1.000000 1001.000000,1.000000 
	C1001.000000,334.333344 1001.000000,667.666687 1001.000000,1001.000000 
	C828.500000,1001.000000 656.000000,1001.000000 483.000000,1001.000000 
M641.226013,412.209625 
	C641.226013,412.209625 641.585510,412.524231 641.581360,413.341736 
	C638.971191,428.762726 635.978027,444.134277 633.978516,459.634064 
	C633.359314,464.434174 634.593079,469.935974 636.489136,474.487122 
	C639.180664,480.947388 650.748840,483.112885 655.459900,478.044495 
	C660.553101,472.565094 665.522217,466.582672 668.911743,459.980896 
	C678.702759,440.910736 687.987061,421.561829 696.858032,402.044098 
	C703.175354,388.144897 708.685303,373.866272 714.187073,359.614716 
	C716.615295,353.324677 713.127869,346.779877 706.822937,344.170776 
	C700.658813,341.619934 696.780029,343.162903 693.314331,350.246307 
	C690.030212,356.958466 687.185669,363.887787 684.215393,370.750885 
	C678.224854,384.592255 672.285339,398.455750 666.300354,412.299500 
	C666.020508,412.946899 665.502747,413.491425 664.220093,415.358582 
	C664.419678,413.132111 664.495300,412.455017 664.539062,411.775909 
	C665.271423,400.408905 669.657837,389.418427 667.192383,377.676666 
	C665.138000,367.892578 655.280823,361.713837 646.680969,366.752899 
	C641.493958,369.792267 637.262085,374.977356 633.546753,379.910522 
	C624.446594,391.993561 615.933777,404.517792 607.080139,416.789032 
	C605.792114,418.574219 603.929688,419.944946 602.333069,421.507446 
	C601.906433,421.234619 601.479797,420.961823 601.053162,420.688995 
	C602.317383,417.552032 603.595764,414.420685 604.842346,411.276703 
	C606.551453,406.966125 608.406433,402.703735 609.897339,398.318237 
	C613.312927,388.271851 616.586121,378.176331 619.840759,368.076141 
	C622.792969,358.914520 625.893311,349.840668 621.485107,340.107666 
	C618.933289,334.473358 616.744141,332.496399 611.124634,332.837982 
	C606.371887,333.126831 602.309387,336.465912 601.157837,341.257538 
	C599.690857,347.361694 598.635681,353.576904 596.917297,359.605774 
	C594.158264,369.285309 591.187683,378.914886 587.943604,388.441986 
	C585.912354,394.407135 583.197815,400.138428 580.822327,405.987823 
	C575.325562,419.522949 569.860474,433.071014 564.343140,446.597748 
	C563.833313,447.847595 563.041199,448.982300 562.380188,450.170471 
	C562.255920,437.010559 563.010254,424.166382 563.484436,411.311859 
	C564.054443,395.857086 564.744446,380.391785 564.667480,364.934570 
	C564.629883,357.384552 563.718384,349.652710 561.860413,342.344391 
	C559.459534,332.900665 550.143555,330.890167 543.443115,338.124756 
	C539.525635,342.354462 535.468445,346.999451 533.334656,352.218323 
	C529.388123,361.870880 523.387085,370.165283 518.171631,379.000458 
	C500.751892,408.510315 483.527130,438.135315 466.221436,467.712524 
	C465.371521,469.165100 464.462067,470.582825 462.956299,473.031708 
	C462.664307,470.511383 462.009979,468.720734 462.481903,468.345062 
	C467.656525,464.226166 465.946350,457.941071 467.586853,452.753082 
	C478.708435,417.581665 489.728851,382.378204 500.765991,347.180054 
	C501.409454,345.127991 502.212585,343.062897 502.427887,340.951508 
	C503.083679,334.520050 499.518433,329.421326 493.759369,328.153107 
	C488.332001,326.957886 483.018250,330.013641 480.937744,336.011993 
	C475.112396,352.806946 468.938629,369.510437 463.977570,386.562805 
	C461.671295,394.490143 457.142120,398.333282 449.799225,399.978729 
	C443.370178,401.419403 436.898438,402.669556 429.875427,404.121765 
	C430.200256,402.731506 430.528229,401.212250 430.911194,399.706940 
	C433.985260,387.623108 437.399109,375.613220 440.034607,363.434784 
	C441.775818,355.388763 438.356201,350.591614 431.305725,349.260406 
	C424.850433,348.041626 418.877899,352.466370 417.205444,359.654114 
	C416.339020,363.377777 415.495850,367.112030 414.459808,370.790161 
	C406.843597,397.828735 399.174500,424.852417 391.539124,451.885590 
	C389.988312,457.376282 389.930237,462.695496 393.287476,467.694092 
	C395.448334,470.911346 397.861328,473.566498 402.195374,472.692932 
	C406.865936,471.751526 409.729828,468.945282 411.032867,464.262115 
	C414.004578,453.581421 417.101624,442.933502 420.346863,432.333221 
	C420.829376,430.757141 422.202332,428.517273 423.484985,428.272919 
	C432.519745,426.551727 441.638702,425.272552 451.015411,423.807770 
	C450.940125,425.015076 451.034363,426.021759 450.795959,426.942261 
	C448.101715,437.344360 444.909973,447.641724 442.755554,458.152435 
	C440.765015,467.863586 439.632477,477.774841 438.608643,487.648438 
	C438.178009,491.801422 440.648987,494.886047 444.744171,496.381958 
	C448.763855,497.850250 452.476440,497.086853 455.318604,494.108429 
	C457.826599,491.480225 459.742706,488.287140 461.912048,485.354462 
	C469.286133,493.123108 479.413483,491.693146 484.808044,481.889221 
	C492.987396,467.024231 501.006165,452.070892 509.178772,437.202148 
	C511.096863,433.712433 513.093994,430.198914 515.575806,427.115784 
	C516.751343,425.655304 519.107239,424.533020 521.011353,424.393890 
	C525.449890,424.069550 529.938477,424.470398 534.407288,424.509125 
	C539.385498,424.552246 540.174438,425.551483 539.662964,430.405029 
	C538.931152,437.348419 538.045349,444.308960 537.916687,451.274963 
	C537.702942,462.848419 546.463318,468.017883 557.200439,463.116211 
	C557.376221,463.248016 557.551941,463.379852 557.633606,464.264893 
	C556.305908,468.020569 554.921326,471.757263 553.661926,475.535675 
	C550.743347,484.291565 556.500122,492.854187 565.555481,492.009552 
	C569.792786,491.614288 574.754517,489.394867 577.692871,486.360687 
	C589.085083,474.596802 600.150940,462.469940 610.655945,449.907623 
	C620.216858,438.474243 628.878540,426.289886 637.985229,414.474030 
	C638.763794,413.463776 639.908691,412.735870 641.226013,412.209625 
M539.988708,535.423889 
	C541.323364,528.916199 542.790466,522.430664 543.885986,515.882935 
	C544.117676,514.498291 543.389648,512.528442 542.417542,511.442627 
	C538.820557,507.424896 527.585876,506.315216 523.210510,509.528351 
	C521.828613,510.543121 520.513550,512.175354 520.017212,513.786560 
	C515.966980,526.936157 512.178711,540.166077 508.195404,553.336731 
	C499.243866,582.934509 490.168274,612.494873 481.286987,642.113586 
	C479.650208,647.572205 479.984375,653.039673 483.794037,657.758728 
	C487.949158,662.905701 493.788635,663.503906 497.816559,658.313965 
	C500.763550,654.516785 502.594818,649.724243 504.317657,645.147278 
	C505.708008,641.453735 506.042328,637.377502 507.109314,633.544617 
	C509.828247,623.777405 512.624329,614.030090 515.545349,604.321716 
	C516.432251,601.373901 517.827637,598.579102 519.005676,595.676025 
	C528.007629,601.912964 536.443115,607.750732 544.871582,613.598633 
	C553.557678,619.625244 562.236938,625.661743 571.124878,631.836792 
	C569.040466,635.533142 566.813843,639.045532 565.013123,642.764160 
	C561.069336,650.908508 565.721497,658.124329 574.653687,658.206299 
	C580.981201,658.264282 584.818848,654.873352 587.637512,649.692078 
	C596.064331,634.202148 604.494995,618.714111 613.004333,603.269470 
	C614.603638,600.366821 616.280640,597.402283 618.484985,594.978394 
	C619.731323,593.607971 622.080200,592.758179 624.010986,592.593262 
	C627.955750,592.256409 631.959839,592.694092 635.928101,592.532837 
	C641.844788,592.292603 642.518982,592.987244 642.121277,598.886292 
	C641.584961,606.842163 640.698730,614.829285 640.977356,622.767395 
	C641.190247,628.832703 646.400391,633.051575 651.847046,633.165527 
	C657.558960,633.285034 662.583313,629.559937 663.017700,623.272034 
	C664.276978,605.041443 664.972107,586.770508 665.773865,568.510315 
	C666.275818,557.077881 666.570801,545.636292 666.975037,533.714783 
	C679.890320,532.426636 692.131836,531.205627 705.551514,529.867126 
	C701.540039,539.365479 697.534607,546.917419 695.135071,554.949158 
	C690.674438,569.879456 687.054993,585.065552 683.262512,600.189636 
	C679.432983,615.462158 675.954834,630.823730 672.031128,646.071167 
	C670.757202,651.021912 670.870422,655.928467 674.617188,658.968445 
	C676.945557,660.857605 681.983276,661.677979 684.575745,660.428284 
	C688.280579,658.642456 691.904724,655.017029 693.672852,651.282227 
	C696.253052,645.832397 697.362183,639.635071 698.726135,633.671326 
	C701.314209,622.354553 702.981567,610.786865 706.210022,599.665588 
	C712.694275,577.328674 719.860413,555.185974 727.061401,533.065979 
	C727.946289,530.347656 730.420227,526.667236 732.749023,526.162964 
	C741.331543,524.304504 750.162720,523.594299 758.509521,522.503296 
	C754.082581,531.716248 749.206116,540.068787 745.960266,549.013000 
	C740.128845,565.081665 735.033264,581.432922 730.142822,597.819092 
	C728.358154,603.799011 727.789307,610.190979 727.179260,616.445007 
	C726.972473,618.564331 727.835022,621.194519 729.083618,622.979309 
	C734.607971,630.875916 742.758118,634.962341 751.948975,633.232422 
	C762.820374,631.186157 773.569763,627.741821 783.836853,623.582520 
	C788.305603,621.772217 791.973206,617.062561 795.012085,612.938293 
	C797.407349,609.687439 795.942505,605.387817 792.858765,603.094666 
	C790.331055,601.215027 786.456604,599.393738 783.671143,599.961304 
	C776.886536,601.343872 770.403564,604.177734 763.767639,606.330017 
	C760.110413,607.516174 756.389587,608.506287 751.597778,609.906006 
	C753.039917,602.096008 754.078552,595.755981 755.494080,589.501282 
	C755.733521,588.443604 757.533752,587.111450 758.719116,586.995850 
	C767.299011,586.159912 775.947510,585.924438 784.486755,584.821167 
	C788.630493,584.285828 793.022766,582.991150 796.529175,580.801697 
	C802.611267,577.004089 802.253357,569.288391 796.485474,564.924255 
	C791.660461,561.273499 786.282715,561.754883 780.714539,562.181519 
	C775.494202,562.581604 770.219116,562.267212 763.744934,562.267212 
	C769.886658,552.132935 775.491943,542.883850 781.375061,533.176331 
	C783.888428,537.795166 785.632507,541.765015 788.050049,545.270325 
	C792.027405,551.037109 801.474609,551.556519 804.488647,542.946960 
	C809.779846,527.832947 801.629944,512.102051 786.138611,508.776733 
	C785.412842,508.620911 784.448608,508.240662 784.141846,507.670776 
	C780.430481,500.776917 774.296814,500.641357 767.707703,501.585297 
	C748.953308,504.272064 730.213257,507.068451 711.433105,509.562775 
	C696.470276,511.550079 681.456848,513.156738 666.404846,514.939575 
	C665.836243,513.408020 665.411194,512.341309 665.041565,511.255707 
	C661.473511,500.777039 652.458252,498.546417 645.388611,507.048004 
	C640.565369,512.848206 637.022949,519.735413 633.108582,526.257080 
	C631.845764,528.361023 631.540955,531.045227 630.255432,533.129456 
	C619.866760,549.972656 609.255310,566.678772 598.907532,583.546814 
	C593.352356,592.602417 588.182434,601.894287 582.782288,611.176392 
	C568.410950,601.512817 554.321472,592.038757 540.398193,582.676453 
	C552.132385,573.606689 563.363281,565.797729 573.579651,556.832703 
	C590.464294,542.015991 606.594238,526.342285 623.284302,511.298279 
	C626.657959,508.257355 626.618164,505.305237 626.311218,501.330811 
	C625.877014,495.708130 623.915161,491.795074 618.416321,489.939331 
	C613.145630,488.160614 609.573608,490.897400 606.027710,494.213776 
	C587.073425,511.940887 568.177917,529.734131 548.992310,547.208374 
	C543.913574,551.834045 537.880676,555.412109 532.285828,559.471191 
	C531.554932,556.604248 531.518433,554.373169 532.309082,552.489258 
	C534.621643,546.979553 537.263977,541.608337 539.988708,535.423889 
M117.127167,566.255310 
	C130.063583,573.091309 142.960739,580.003479 155.964966,586.707947 
	C159.078857,588.313232 160.524643,590.173157 159.747025,593.777283 
	C157.433380,604.500427 155.619080,615.345398 152.883926,625.955627 
	C151.970337,629.499695 149.499649,633.270691 146.637741,635.557617 
	C140.025909,640.840942 132.710800,645.238647 125.734207,650.072449 
	C118.343803,655.192810 118.602562,659.302368 126.545242,663.582153 
	C127.311745,662.207520 128.078018,660.833313 128.908234,659.344421 
	C131.271057,660.476135 133.329803,661.462158 134.300537,661.927063 
	C138.833496,657.942017 142.690567,654.231567 146.908371,650.990662 
	C148.757736,649.569641 151.580276,648.069824 153.524292,648.514465 
	C155.292892,648.919067 156.470139,651.908691 158.203873,654.139465 
	C159.710327,652.306458 162.685806,650.272278 162.509232,648.563782 
	C162.163284,645.216248 160.060501,642.050293 158.564697,638.526062 
	C166.380478,634.102600 174.319641,629.599121 182.268570,625.112915 
	C192.565140,619.301819 199.731262,610.991089 203.215851,599.543884 
	C205.037781,593.558594 207.285675,587.702881 209.416626,581.571655 
	C211.290466,582.193481 212.779312,582.487732 214.078430,583.152710 
	C220.146545,586.258606 225.549484,585.399048 231.433685,581.912659 
	C250.319321,570.722961 269.490875,560.016235 288.532593,549.089111 
	C290.128174,548.173462 291.577728,547.003296 294.036896,545.298462 
	C280.303314,543.873413 267.959564,542.592651 254.469360,541.192871 
	C256.817902,539.638611 258.140961,538.712585 259.511810,537.863647 
	C270.404541,531.118286 281.311066,524.395142 292.203735,517.649658 
	C299.604034,513.066895 304.375519,506.880188 306.350708,498.062256 
	C308.781464,487.210541 312.127106,476.547028 315.488159,465.932281 
	C316.325775,463.286926 318.348785,460.672028 320.511993,458.861725 
	C325.287048,454.865631 328.549530,450.208923 330.163757,444.134766 
	C332.853302,434.014221 335.878967,423.981598 338.871368,413.944214 
	C339.430298,412.069458 340.081146,409.927277 341.396698,408.620300 
	C350.657288,399.419739 354.383972,387.626770 357.664795,375.496094 
	C362.646790,357.075378 367.902435,338.728668 373.278992,319.502625 
	C371.174835,320.547119 369.869873,321.120697 368.635498,321.819000 
	C355.601746,329.192322 342.570221,336.569702 329.555206,343.976013 
	C279.823730,372.276215 230.123657,400.631775 180.354950,428.866333 
	C166.316101,436.830750 156.943130,448.209534 152.887207,463.951630 
	C150.772415,472.159668 148.090561,480.222687 146.022797,488.441254 
	C144.920700,492.821594 142.636414,495.680084 138.683258,497.851440 
	C127.023003,504.256104 115.505630,510.922668 103.975258,517.561279 
	C97.101494,521.518860 91.325798,526.614868 87.008362,533.425720 
	C85.395905,535.969360 82.970299,538.229553 80.445290,539.914429 
	C75.196548,543.416870 69.564453,546.338989 64.225998,549.714844 
	C61.009384,551.748840 59.680576,554.693726 62.114239,558.187988 
	C66.072662,563.871582 71.262482,568.123413 76.081245,570.452698 
	C78.955284,567.290283 80.945656,563.002441 83.687408,562.451111 
	C94.802498,560.216003 106.185997,558.803162 117.127167,566.255310 
M756.732483,409.260040 
	C765.141968,402.720795 773.936890,396.614990 781.880737,389.552002 
	C798.413269,374.852875 814.403870,359.545746 830.831604,344.726135 
	C834.557739,341.364868 836.563538,338.289185 835.641968,332.929230 
	C834.742676,327.698730 833.158630,323.795135 827.862305,321.911285 
	C822.574463,320.030457 818.868164,322.551453 815.442871,325.971832 
	C809.211243,332.194550 803.387451,338.873016 796.784241,344.667053 
	C779.913086,359.471130 762.717468,373.905975 745.611938,388.441803 
	C744.339783,389.522858 742.751343,390.231750 741.309937,391.113586 
	C740.860535,390.790955 740.411194,390.468292 739.961792,390.145660 
	C741.444275,386.017212 742.403503,381.596649 744.512573,377.817932 
	C749.746948,368.439758 752.055115,358.329590 753.031982,347.832397 
	C753.175842,346.286438 752.377502,344.187103 751.276123,343.076569 
	C747.681702,339.451996 737.786804,338.240753 733.384827,340.979370 
	C731.579407,342.102570 729.779419,344.130035 729.158081,346.115692 
	C725.102966,359.076599 721.450378,372.162659 717.519043,385.163330 
	C708.522522,414.914246 699.368225,444.617676 690.465881,474.396545 
	C688.956177,479.446594 689.213074,484.666077 692.651489,489.170502 
	C697.063965,494.951141 703.309387,495.376495 707.716431,489.611328 
	C710.263489,486.279358 712.127747,482.199585 713.405212,478.172699 
	C715.658020,471.071625 717.124939,463.725433 719.108704,456.533691 
	C721.404968,448.208832 723.662354,439.858917 726.406555,431.677490 
	C728.031799,426.832031 730.438232,426.865845 733.664185,430.805054 
	C735.507507,433.055847 737.800720,435.050873 740.211304,436.690857 
	C742.374817,438.162689 745.228027,438.641571 747.340393,440.164215 
	C756.769348,446.960938 766.078979,453.925568 775.355652,460.930298 
	C780.218567,464.602264 787.821228,463.630951 791.925720,458.612213 
	C795.796936,453.878632 795.518616,445.843842 790.711792,442.406036 
	C781.797729,436.030731 772.522766,430.161407 763.431213,424.032257 
	C758.742004,420.871002 754.124023,417.604156 748.745728,413.881012 
	C752.132202,411.961578 754.139526,410.823853 756.732483,409.260040 
M889.711914,399.999420 
	C884.904297,399.382324 880.096619,398.765198 874.494934,398.046143 
	C884.451172,386.542328 894.436157,376.673798 906.847900,369.305267 
	C906.981628,371.068207 906.493408,372.378571 906.050110,373.703949 
	C904.350281,378.785583 906.515320,385.330658 910.711365,387.836761 
	C914.791687,390.273651 921.183350,389.057343 924.668091,384.681610 
	C929.714111,378.345520 934.565613,371.842712 939.245361,365.230713 
	C942.553040,360.557526 941.941895,357.479034 936.911133,354.454193 
	C931.956299,351.474976 926.614746,349.145630 921.495300,346.432251 
	C911.378113,341.069946 902.086426,342.348572 893.693359,350.209991 
	C891.884216,351.904602 889.871887,353.432312 887.782104,354.769409 
	C870.498901,365.827545 857.168091,381.126221 843.571594,396.102478 
	C840.192932,399.824066 837.336487,404.429962 840.200989,409.728943 
	C843.271362,415.408875 847.692810,419.334259 854.833374,419.238159 
	C860.148376,419.166626 865.502808,419.429962 870.778931,420.056183 
	C873.896729,420.426208 876.896179,421.792969 880.388184,422.843689 
	C879.391052,423.988281 879.125122,424.435913 878.738342,424.717346 
	C860.157776,438.234772 841.561951,451.731232 822.979675,465.246216 
	C816.929565,469.646484 810.547607,473.681183 804.979187,478.627991 
	C799.215759,483.748077 800.611694,491.488831 807.292664,494.679962 
	C811.980713,496.919159 816.666260,496.820801 821.034668,493.771240 
	C852.529053,471.785004 884.043030,449.826599 915.460022,427.730133 
	C920.486145,424.195038 924.927490,419.572357 923.411438,412.787628 
	C921.846619,405.785034 915.914185,403.026062 909.530090,401.389771 
	C907.936707,400.981415 906.236206,400.946960 904.578430,400.842621 
	C899.928894,400.550018 895.275879,400.310669 889.711914,399.999420 
M826.882690,609.394348 
	C814.847656,618.023743 802.812500,626.652832 790.777771,635.282654 
	C786.316772,638.481567 781.732910,641.525452 777.433655,644.928772 
	C773.606567,647.958130 770.939270,651.719238 772.756042,657.045227 
	C774.230469,661.367493 778.817749,664.448486 784.257935,664.051758 
	C786.940369,663.856262 789.908813,662.983154 792.106873,661.479675 
	C808.301392,650.402466 824.332825,639.087036 840.417847,627.849670 
	C854.581543,617.954590 868.823364,608.168396 882.861389,598.098206 
	C886.445068,595.527405 889.932800,592.456482 892.492310,588.912964 
	C896.046143,583.992798 895.320374,578.138489 890.287109,574.782471 
	C886.064453,571.967041 880.840454,569.925293 875.818665,569.191650 
	C866.016296,567.759583 856.045288,567.481384 844.930359,566.632751 
	C855.015320,554.611694 865.225098,544.866089 877.379272,536.617920 
	C877.812195,537.951050 878.061340,538.303711 877.987122,538.564148 
	C877.718628,539.505859 877.355469,540.421875 877.002930,541.337952 
	C875.002563,546.535156 877.021240,553.221558 881.406677,555.901978 
	C885.442261,558.368530 891.916199,557.198364 895.381531,552.853088 
	C900.428345,546.524902 905.265015,540.016418 909.929199,533.400085 
	C913.273865,528.655334 912.713318,525.583923 907.719116,522.585754 
	C902.192871,519.268127 896.257080,516.640930 890.612915,513.508972 
	C886.308960,511.120728 881.991577,510.740662 877.152710,511.595703 
	C869.939392,512.870300 865.336731,518.049377 859.857117,521.987671 
	C846.909546,531.293213 833.908752,540.503357 824.532471,553.798950 
	C823.121155,555.800293 820.924805,557.231323 819.218201,559.045349 
	C816.950500,561.455688 814.485413,563.769165 812.670044,566.499878 
	C806.962341,575.085510 812.967773,586.502686 823.409546,587.139954 
	C829.052979,587.484436 834.731567,587.444763 840.342712,588.053528 
	C843.829346,588.431824 847.219421,589.699524 852.004761,590.909973 
	C842.944092,597.575439 835.200378,603.272034 826.882690,609.394348 
M440.039581,559.569336 
	C447.971527,551.104980 456.373413,543.202209 466.620514,537.224121 
	C466.739899,538.914673 466.367920,540.249329 465.889862,541.544739 
	C463.969666,546.748657 466.109955,553.383789 470.582123,555.995605 
	C474.690399,558.394897 481.033722,557.063477 484.491180,552.675598 
	C489.399139,546.446838 494.159424,540.092834 498.760010,533.633667 
	C502.303070,528.659180 501.783844,525.731323 496.466309,522.493958 
	C491.387360,519.401794 485.899109,516.990112 480.661926,514.148071 
	C472.193909,509.552734 461.438812,510.854553 454.314392,517.297852 
	C451.865448,519.512634 449.266296,521.610535 446.522278,523.442017 
	C429.787354,534.611755 416.547729,549.481323 403.196747,564.229065 
	C401.878754,565.684937 400.352661,567.471008 400.108215,569.265259 
	C399.683319,572.384399 399.147156,576.192566 400.511780,578.704651 
	C403.356964,583.942322 407.797546,587.537659 414.595734,587.272583 
	C419.890320,587.066040 425.252411,587.473877 430.520447,588.125916 
	C433.618011,588.509338 436.590485,589.903320 440.049438,590.976257 
	C439.073334,592.106873 438.812347,592.554443 438.428711,592.832886 
	C419.571442,606.516418 400.707855,620.191223 381.834167,633.852112 
	C376.578735,637.656067 371.160767,641.249146 366.059570,645.247864 
	C362.344849,648.159790 359.888031,651.983643 361.744843,657.008179 
	C363.591095,662.004028 367.698517,664.275757 372.700867,664.017273 
	C375.675690,663.863525 379.004791,662.865601 381.439362,661.183167 
	C400.044373,648.326416 418.433136,635.157410 436.961761,622.189270 
	C448.526062,614.095459 460.298981,606.297852 471.800385,598.117188 
	C475.263519,595.653992 478.640289,592.729858 481.150726,589.345093 
	C485.047821,584.090698 484.322632,578.035645 478.898743,574.458862 
	C474.793121,571.751343 469.685577,569.867798 464.803619,569.179382 
	C454.989075,567.795166 445.024170,567.477234 433.845520,566.621643 
	C436.351471,563.737793 437.942047,561.907410 440.039581,559.569336 
M287.089478,597.576599 
	C317.615326,574.909790 336.663055,545.510193 339.634338,506.949097 
	C340.789337,491.960022 339.281311,477.159637 334.293213,462.794128 
	C333.288239,463.464172 332.826141,464.113129 332.686340,464.825287 
	C329.772583,479.664459 325.811554,494.394745 324.207306,509.376740 
	C318.649170,561.283875 274.088226,603.166992 221.717270,603.673706 
	C212.447052,603.763428 207.898346,606.910339 205.326431,614.902893 
	C205.028488,615.828796 204.625427,616.720886 204.254639,617.670898 
	C230.604477,620.946228 261.952728,615.253418 287.089478,597.576599 
M151.812302,395.335663 
	C107.552383,424.841003 92.822723,469.130646 97.732399,511.018494 
	C99.253990,510.196381 100.610367,509.196625 102.131004,508.688080 
	C108.740898,506.477509 111.258904,501.897980 111.417358,495.046722 
	C111.562927,488.752930 112.342209,482.398834 113.573479,476.216919 
	C123.937538,424.181427 170.201279,387.673492 223.152588,390.423370 
	C233.567169,390.964264 239.736694,384.487793 248.505234,380.619904 
	C214.271637,370.942413 180.788040,376.095703 151.812302,395.335663 
M853.841248,334.878479 
	C855.059998,337.644623 856.278687,340.410767 857.695312,343.626160 
	C857.351440,343.947571 855.505432,344.880463 855.084167,346.251160 
	C854.440491,348.345520 854.780579,350.742218 854.702942,353.010590 
	C856.668823,352.906677 859.400940,353.588165 860.460205,352.554871 
	C863.951294,349.149109 867.510010,345.482574 869.778259,341.240112 
	C872.385986,336.362701 870.083496,331.514648 865.351135,329.175049 
	C861.489929,327.266144 856.747131,329.339752 853.841248,334.878479 
z"/>
<path fill="#FFFEFC" opacity="1.000000" stroke="none" 
	d="
M556.692383,462.696594 
	C546.463318,468.017883 537.702942,462.848419 537.916687,451.274963 
	C538.045349,444.308960 538.931152,437.348419 539.662964,430.405029 
	C540.174438,425.551483 539.385498,424.552246 534.407288,424.509125 
	C529.938477,424.470398 525.449890,424.069550 521.011353,424.393890 
	C519.107239,424.533020 516.751343,425.655304 515.575806,427.115784 
	C513.093994,430.198914 511.096863,433.712433 509.178772,437.202148 
	C501.006165,452.070892 492.987396,467.024231 484.808044,481.889221 
	C479.413483,491.693146 469.286133,493.123108 461.912048,485.354462 
	C459.742706,488.287140 457.826599,491.480225 455.318604,494.108429 
	C452.476440,497.086853 448.763855,497.850250 444.744171,496.381958 
	C440.648987,494.886047 438.178009,491.801422 438.608643,487.648438 
	C439.632477,477.774841 440.765015,467.863586 442.755554,458.152435 
	C444.909973,447.641724 448.101715,437.344360 450.795959,426.942261 
	C451.034363,426.021759 450.940125,425.015076 451.015411,423.807770 
	C441.638702,425.272552 432.519745,426.551727 423.484985,428.272919 
	C422.202332,428.517273 420.829376,430.757141 420.346863,432.333221 
	C417.101624,442.933502 414.004578,453.581421 411.032867,464.262115 
	C409.729828,468.945282 406.865936,471.751526 402.195374,472.692932 
	C397.861328,473.566498 395.448334,470.911346 393.287476,467.694092 
	C389.930237,462.695496 389.988312,457.376282 391.539124,451.885590 
	C399.174500,424.852417 406.843597,397.828735 414.459808,370.790161 
	C415.495850,367.112030 416.339020,363.377777 417.205444,359.654114 
	C418.877899,352.466370 424.850433,348.041626 431.305725,349.260406 
	C438.356201,350.591614 441.775818,355.388763 440.034607,363.434784 
	C437.399109,375.613220 433.985260,387.623108 430.911194,399.706940 
	C430.528229,401.212250 430.200256,402.731506 429.875427,404.121765 
	C436.898438,402.669556 443.370178,401.419403 449.799225,399.978729 
	C457.142120,398.333282 461.671295,394.490143 463.977570,386.562805 
	C468.938629,369.510437 475.112396,352.806946 480.937744,336.011993 
	C483.018250,330.013641 488.332001,326.957886 493.759369,328.153107 
	C499.518433,329.421326 503.083679,334.520050 502.427887,340.951508 
	C502.212585,343.062897 501.409454,345.127991 500.765991,347.180054 
	C489.728851,382.378204 478.708435,417.581665 467.586853,452.753082 
	C465.946350,457.941071 467.656525,464.226166 462.481903,468.345062 
	C462.009979,468.720734 462.664307,470.511383 462.956299,473.031708 
	C464.462067,470.582825 465.371521,469.165100 466.221436,467.712524 
	C483.527130,438.135315 500.751892,408.510315 518.171631,379.000458 
	C523.387085,370.165283 529.388123,361.870880 533.334656,352.218323 
	C535.468445,346.999451 539.525635,342.354462 543.443115,338.124756 
	C550.143555,330.890167 559.459534,332.900665 561.860413,342.344391 
	C563.718384,349.652710 564.629883,357.384552 564.667480,364.934570 
	C564.744446,380.391785 564.054443,395.857086 563.484436,411.311859 
	C563.010254,424.166382 562.255920,437.010559 562.380188,450.170471 
	C563.041199,448.982300 563.833313,447.847595 564.343140,446.597748 
	C569.860474,433.071014 575.325562,419.522949 580.822327,405.987823 
	C583.197815,400.138428 585.912354,394.407135 587.943604,388.441986 
	C591.187683,378.914886 594.158264,369.285309 596.917297,359.605774 
	C598.635681,353.576904 599.690857,347.361694 601.157837,341.257538 
	C602.309387,336.465912 606.371887,333.126831 611.124634,332.837982 
	C616.744141,332.496399 618.933289,334.473358 621.485107,340.107666 
	C625.893311,349.840668 622.792969,358.914520 619.840759,368.076141 
	C616.586121,378.176331 613.312927,388.271851 609.897339,398.318237 
	C608.406433,402.703735 606.551453,406.966125 604.842346,411.276703 
	C603.595764,414.420685 602.317383,417.552032 601.053162,420.688995 
	C601.479797,420.961823 601.906433,421.234619 602.333069,421.507446 
	C603.929688,419.944946 605.792114,418.574219 607.080139,416.789032 
	C615.933777,404.517792 624.446594,391.993561 633.546753,379.910522 
	C637.262085,374.977356 641.493958,369.792267 646.680969,366.752899 
	C655.280823,361.713837 665.138000,367.892578 667.192383,377.676666 
	C669.657837,389.418427 665.271423,400.408905 664.539062,411.775909 
	C664.495300,412.455017 664.419678,413.132111 664.220093,415.358582 
	C665.502747,413.491425 666.020508,412.946899 666.300354,412.299500 
	C672.285339,398.455750 678.224854,384.592255 684.215393,370.750885 
	C687.185669,363.887787 690.030212,356.958466 693.314331,350.246307 
	C696.780029,343.162903 700.658813,341.619934 706.822937,344.170776 
	C713.127869,346.779877 716.615295,353.324677 714.187073,359.614716 
	C708.685303,373.866272 703.175354,388.144897 696.858032,402.044098 
	C687.987061,421.561829 678.702759,440.910736 668.911743,459.980896 
	C665.522217,466.582672 660.553101,472.565094 655.459900,478.044495 
	C650.748840,483.112885 639.180664,480.947388 636.489136,474.487122 
	C634.593079,469.935974 633.359314,464.434174 633.978516,459.634064 
	C635.978027,444.134277 638.971191,428.762726 641.695679,412.709167 
	C641.651245,411.810120 641.492493,411.543610 641.333679,411.277161 
	C641.183594,411.477020 641.033508,411.676910 640.883362,411.876770 
	C639.908691,412.735870 638.763794,413.463776 637.985229,414.474030 
	C628.878540,426.289886 620.216858,438.474243 610.655945,449.907623 
	C600.150940,462.469940 589.085083,474.596802 577.692871,486.360687 
	C574.754517,489.394867 569.792786,491.614288 565.555481,492.009552 
	C556.500122,492.854187 550.743347,484.291565 553.661926,475.535675 
	C554.921326,471.757263 556.305908,468.020569 557.796753,463.617157 
	C557.878662,462.687378 557.797485,462.405365 557.716309,462.123352 
	C557.374939,462.314423 557.033630,462.505493 556.692383,462.696594 
M542.512695,392.879822 
	C542.512695,389.026276 542.512695,385.172729 542.512695,381.319183 
	C541.928223,381.156616 541.343750,380.994049 540.759277,380.831482 
	C538.230774,387.233917 535.702271,393.636322 533.157837,400.079041 
	C539.953186,402.473053 540.799377,402.041534 542.008972,396.203064 
	C542.177002,395.392151 542.247620,394.561035 542.512695,392.879822 
M601.598083,421.052368 
	C601.528015,421.277496 601.457947,421.502594 601.387817,421.727692 
	C601.606384,421.650116 601.824951,421.572540 601.598083,421.052368 
z"/>
<path fill="#FFFEFC" opacity="1.000000" stroke="none" 
	d="
M539.882935,535.803345 
	C537.263977,541.608337 534.621643,546.979553 532.309082,552.489258 
	C531.518433,554.373169 531.554932,556.604248 532.285828,559.471191 
	C537.880676,555.412109 543.913574,551.834045 548.992310,547.208374 
	C568.177917,529.734131 587.073425,511.940887 606.027710,494.213776 
	C609.573608,490.897400 613.145630,488.160614 618.416321,489.939331 
	C623.915161,491.795074 625.877014,495.708130 626.311218,501.330811 
	C626.618164,505.305237 626.657959,508.257355 623.284302,511.298279 
	C606.594238,526.342285 590.464294,542.015991 573.579651,556.832703 
	C563.363281,565.797729 552.132385,573.606689 540.398193,582.676453 
	C554.321472,592.038757 568.410950,601.512817 582.782288,611.176392 
	C588.182434,601.894287 593.352356,592.602417 598.907532,583.546814 
	C609.255310,566.678772 619.866760,549.972656 630.255432,533.129456 
	C631.540955,531.045227 631.845764,528.361023 633.108582,526.257080 
	C637.022949,519.735413 640.565369,512.848206 645.388611,507.048004 
	C652.458252,498.546417 661.473511,500.777039 665.041565,511.255707 
	C665.411194,512.341309 665.836243,513.408020 666.404846,514.939575 
	C681.456848,513.156738 696.470276,511.550079 711.433105,509.562775 
	C730.213257,507.068451 748.953308,504.272064 767.707703,501.585297 
	C774.296814,500.641357 780.430481,500.776917 784.141846,507.670776 
	C784.448608,508.240662 785.412842,508.620911 786.138611,508.776733 
	C801.629944,512.102051 809.779846,527.832947 804.488647,542.946960 
	C801.474609,551.556519 792.027405,551.037109 788.050049,545.270325 
	C785.632507,541.765015 783.888428,537.795166 781.375061,533.176331 
	C775.491943,542.883850 769.886658,552.132935 763.744934,562.267212 
	C770.219116,562.267212 775.494202,562.581604 780.714539,562.181519 
	C786.282715,561.754883 791.660461,561.273499 796.485474,564.924255 
	C802.253357,569.288391 802.611267,577.004089 796.529175,580.801697 
	C793.022766,582.991150 788.630493,584.285828 784.486755,584.821167 
	C775.947510,585.924438 767.299011,586.159912 758.719116,586.995850 
	C757.533752,587.111450 755.733521,588.443604 755.494080,589.501282 
	C754.078552,595.755981 753.039917,602.096008 751.597778,609.906006 
	C756.389587,608.506287 760.110413,607.516174 763.767639,606.330017 
	C770.403564,604.177734 776.886536,601.343872 783.671143,599.961304 
	C786.456604,599.393738 790.331055,601.215027 792.858765,603.094666 
	C795.942505,605.387817 797.407349,609.687439 795.012085,612.938293 
	C791.973206,617.062561 788.305603,621.772217 783.836853,623.582520 
	C773.569763,627.741821 762.820374,631.186157 751.948975,633.232422 
	C742.758118,634.962341 734.607971,630.875916 729.083618,622.979309 
	C727.835022,621.194519 726.972473,618.564331 727.179260,616.445007 
	C727.789307,610.190979 728.358154,603.799011 730.142822,597.819092 
	C735.033264,581.432922 740.128845,565.081665 745.960266,549.013000 
	C749.206116,540.068787 754.082581,531.716248 758.509521,522.503296 
	C750.162720,523.594299 741.331543,524.304504 732.749023,526.162964 
	C730.420227,526.667236 727.946289,530.347656 727.061401,533.065979 
	C719.860413,555.185974 712.694275,577.328674 706.210022,599.665588 
	C702.981567,610.786865 701.314209,622.354553 698.726135,633.671326 
	C697.362183,639.635071 696.253052,645.832397 693.672852,651.282227 
	C691.904724,655.017029 688.280579,658.642456 684.575745,660.428284 
	C681.983276,661.677979 676.945557,660.857605 674.617188,658.968445 
	C670.870422,655.928467 670.757202,651.021912 672.031128,646.071167 
	C675.954834,630.823730 679.432983,615.462158 683.262512,600.189636 
	C687.054993,585.065552 690.674438,569.879456 695.135071,554.949158 
	C697.534607,546.917419 701.540039,539.365479 705.551514,529.867126 
	C692.131836,531.205627 679.890320,532.426636 666.975037,533.714783 
	C666.570801,545.636292 666.275818,557.077881 665.773865,568.510315 
	C664.972107,586.770508 664.276978,605.041443 663.017700,623.272034 
	C662.583313,629.559937 657.558960,633.285034 651.847046,633.165527 
	C646.400391,633.051575 641.190247,628.832703 640.977356,622.767395 
	C640.698730,614.829285 641.584961,606.842163 642.121277,598.886292 
	C642.518982,592.987244 641.844788,592.292603 635.928101,592.532837 
	C631.959839,592.694092 627.955750,592.256409 624.010986,592.593262 
	C622.080200,592.758179 619.731323,593.607971 618.484985,594.978394 
	C616.280640,597.402283 614.603638,600.366821 613.004333,603.269470 
	C604.494995,618.714111 596.064331,634.202148 587.637512,649.692078 
	C584.818848,654.873352 580.981201,658.264282 574.653687,658.206299 
	C565.721497,658.124329 561.069336,650.908508 565.013123,642.764160 
	C566.813843,639.045532 569.040466,635.533142 571.124878,631.836792 
	C562.236938,625.661743 553.557678,619.625244 544.871582,613.598633 
	C536.443115,607.750732 528.007629,601.912964 519.005676,595.676025 
	C517.827637,598.579102 516.432251,601.373901 515.545349,604.321716 
	C512.624329,614.030090 509.828247,623.777405 507.109314,633.544617 
	C506.042328,637.377502 505.708008,641.453735 504.317657,645.147278 
	C502.594818,649.724243 500.763550,654.516785 497.816559,658.313965 
	C493.788635,663.503906 487.949158,662.905701 483.794037,657.758728 
	C479.984375,653.039673 479.650208,647.572205 481.286987,642.113586 
	C490.168274,612.494873 499.243866,582.934509 508.195404,553.336731 
	C512.178711,540.166077 515.966980,526.936157 520.017212,513.786560 
	C520.513550,512.175354 521.828613,510.543121 523.210510,509.528351 
	C527.585876,506.315216 538.820557,507.424896 542.417542,511.442627 
	C543.389648,512.528442 544.117676,514.498291 543.885986,515.882935 
	C542.790466,522.430664 541.323364,528.916199 539.882935,535.803345 
M642.079834,569.668945 
	C646.664429,563.330750 645.415222,556.340271 645.318848,549.478699 
	C644.650574,549.307190 643.982300,549.135620 643.313965,548.964111 
	C640.823120,555.400391 638.332214,561.836670 635.718628,568.590027 
	C638.142944,569.126953 639.730591,569.478516 642.079834,569.668945 
z"/>
<path fill="#FFFCF9" opacity="1.000000" stroke="none" 
	d="
M116.791771,566.087341 
	C106.185997,558.803162 94.802498,560.216003 83.687408,562.451111 
	C80.945656,563.002441 78.955284,567.290283 76.081245,570.452698 
	C71.262482,568.123413 66.072662,563.871582 62.114239,558.187988 
	C59.680576,554.693726 61.009384,551.748840 64.225998,549.714844 
	C69.564453,546.338989 75.196548,543.416870 80.445290,539.914429 
	C82.970299,538.229553 85.395905,535.969360 87.008362,533.425720 
	C91.325798,526.614868 97.101494,521.518860 103.975258,517.561279 
	C115.505630,510.922668 127.023003,504.256104 138.683258,497.851440 
	C142.636414,495.680084 144.920700,492.821594 146.022797,488.441254 
	C148.090561,480.222687 150.772415,472.159668 152.887207,463.951630 
	C156.943130,448.209534 166.316101,436.830750 180.354950,428.866333 
	C230.123657,400.631775 279.823730,372.276215 329.555206,343.976013 
	C342.570221,336.569702 355.601746,329.192322 368.635498,321.819000 
	C369.869873,321.120697 371.174835,320.547119 373.278992,319.502625 
	C367.902435,338.728668 362.646790,357.075378 357.664795,375.496094 
	C354.383972,387.626770 350.657288,399.419739 341.396698,408.620300 
	C340.081146,409.927277 339.430298,412.069458 338.871368,413.944214 
	C335.878967,423.981598 332.853302,434.014221 330.163757,444.134766 
	C328.549530,450.208923 325.287048,454.865631 320.511993,458.861725 
	C318.348785,460.672028 316.325775,463.286926 315.488159,465.932281 
	C312.127106,476.547028 308.781464,487.210541 306.350708,498.062256 
	C304.375519,506.880188 299.604034,513.066895 292.203735,517.649658 
	C281.311066,524.395142 270.404541,531.118286 259.511810,537.863647 
	C258.140961,538.712585 256.817902,539.638611 254.469360,541.192871 
	C267.959564,542.592651 280.303314,543.873413 294.036896,545.298462 
	C291.577728,547.003296 290.128174,548.173462 288.532593,549.089111 
	C269.490875,560.016235 250.319321,570.722961 231.433685,581.912659 
	C225.549484,585.399048 220.146545,586.258606 214.078430,583.152710 
	C212.779312,582.487732 211.290466,582.193481 209.416626,581.571655 
	C207.285675,587.702881 205.037781,593.558594 203.215851,599.543884 
	C199.731262,610.991089 192.565140,619.301819 182.268570,625.112915 
	C174.319641,629.599121 166.380478,634.102600 158.564697,638.526062 
	C160.060501,642.050293 162.163284,645.216248 162.509232,648.563782 
	C162.685806,650.272278 159.710327,652.306458 158.203873,654.139465 
	C156.470139,651.908691 155.292892,648.919067 153.524292,648.514465 
	C151.580276,648.069824 148.757736,649.569641 146.908371,650.990662 
	C142.690567,654.231567 138.833496,657.942017 134.300537,661.927063 
	C133.329803,661.462158 131.271057,660.476135 128.908234,659.344421 
	C128.078018,660.833313 127.311745,662.207520 126.545242,663.582153 
	C118.602562,659.302368 118.343803,655.192810 125.734207,650.072449 
	C132.710800,645.238647 140.025909,640.840942 146.637741,635.557617 
	C149.499649,633.270691 151.970337,629.499695 152.883926,625.955627 
	C155.619080,615.345398 157.433380,604.500427 159.747025,593.777283 
	C160.524643,590.173157 159.078857,588.313232 155.964966,586.707947 
	C142.960739,580.003479 130.063583,573.091309 116.791771,566.087341 
M97.076637,547.329529 
	C104.016747,546.379333 110.439514,547.292419 116.745247,550.876953 
	C128.587112,557.608704 140.836182,563.620178 152.757553,570.217346 
	C160.506088,574.505310 167.972229,579.325562 176.668015,571.199341 
	C176.867722,571.582397 177.067413,571.965515 177.267120,572.348572 
	C174.442566,586.908508 171.618011,601.468384 168.638382,616.827759 
	C177.922333,613.197815 184.835251,608.035156 188.779968,599.715271 
	C190.969269,595.097717 192.220032,590.037109 193.922623,585.186340 
	C196.365601,578.226196 198.834885,571.275208 201.356384,564.140869 
	C206.822021,566.154602 211.423218,568.089355 216.179382,569.502686 
	C218.613678,570.226013 221.862381,571.058044 223.819595,570.049316 
	C232.789261,565.426453 241.433945,560.172729 250.175247,555.110901 
	C250.272079,555.054871 250.100739,554.535706 250.046814,554.181763 
	C238.724564,553.023987 227.401001,551.866089 216.077438,550.708130 
	C217.105865,548.587341 218.466049,547.570618 219.908752,546.689026 
	C240.335434,534.206116 260.884155,521.916931 281.117126,509.128021 
	C285.276581,506.498871 289.724365,502.614105 291.495209,498.270874 
	C295.294037,488.953796 297.433289,478.960083 300.637207,468.949585 
	C300.252655,468.748352 299.868134,468.547119 298.790955,468.550964 
	C285.882019,474.122711 272.973114,479.694458 260.064178,485.266205 
	C259.845184,484.901581 259.626160,484.536926 259.407166,484.172272 
	C261.159302,482.840576 262.803528,481.328369 264.680847,480.206146 
	C277.673462,472.439667 290.805939,464.902344 303.683197,456.950867 
	C307.434174,454.634705 312.004028,451.859619 313.596283,448.171448 
	C318.142242,437.641418 321.350006,426.533661 325.084198,415.653168 
	C324.579590,415.379639 324.074982,415.106079 323.570343,414.832550 
	C293.278534,428.110565 262.986725,441.388580 232.694901,454.666595 
	C233.667191,452.721558 235.120255,451.736298 236.640793,450.869415 
	C267.130066,433.487701 297.587341,416.049164 328.151337,398.799774 
	C335.541534,394.628998 340.418793,388.981201 342.451202,380.611572 
	C344.646820,371.569885 347.423126,362.669891 349.897614,353.694733 
	C350.407532,351.845245 350.703430,349.936798 351.309052,347.049042 
	C345.211700,350.477997 340.010254,353.374023 334.835876,356.317535 
	C285.388855,384.446045 235.964905,412.615173 186.487457,440.690063 
	C176.278152,446.483124 169.340836,454.691406 166.130798,466.044281 
	C162.060425,480.439941 157.910706,494.813324 153.745956,509.182007 
	C153.070038,511.513947 152.139359,513.772034 151.301346,516.135071 
	C150.075851,515.951843 149.144745,516.049744 148.477539,515.676208 
	C141.727676,511.897522 135.790085,513.859802 129.819214,517.774963 
	C124.540436,521.236328 119.114151,524.572571 113.433281,527.297546 
	C104.842812,531.418213 99.173676,537.984253 95.232338,546.876770 
	C95.547653,546.980713 95.862968,547.084717 97.076637,547.329529 
z"/>
<path fill="#FFFEFC" opacity="1.000000" stroke="none" 
	d="
M756.439697,409.473083 
	C754.139526,410.823853 752.132202,411.961578 748.745728,413.881012 
	C754.124023,417.604156 758.742004,420.871002 763.431213,424.032257 
	C772.522766,430.161407 781.797729,436.030731 790.711792,442.406036 
	C795.518616,445.843842 795.796936,453.878632 791.925720,458.612213 
	C787.821228,463.630951 780.218567,464.602264 775.355652,460.930298 
	C766.078979,453.925568 756.769348,446.960938 747.340393,440.164215 
	C745.228027,438.641571 742.374817,438.162689 740.211304,436.690857 
	C737.800720,435.050873 735.507507,433.055847 733.664185,430.805054 
	C730.438232,426.865845 728.031799,426.832031 726.406555,431.677490 
	C723.662354,439.858917 721.404968,448.208832 719.108704,456.533691 
	C717.124939,463.725433 715.658020,471.071625 713.405212,478.172699 
	C712.127747,482.199585 710.263489,486.279358 707.716431,489.611328 
	C703.309387,495.376495 697.063965,494.951141 692.651489,489.170502 
	C689.213074,484.666077 688.956177,479.446594 690.465881,474.396545 
	C699.368225,444.617676 708.522522,414.914246 717.519043,385.163330 
	C721.450378,372.162659 725.102966,359.076599 729.158081,346.115692 
	C729.779419,344.130035 731.579407,342.102570 733.384827,340.979370 
	C737.786804,338.240753 747.681702,339.451996 751.276123,343.076569 
	C752.377502,344.187103 753.175842,346.286438 753.031982,347.832397 
	C752.055115,358.329590 749.746948,368.439758 744.512573,377.817932 
	C742.403503,381.596649 741.444275,386.017212 739.961792,390.145660 
	C740.411194,390.468292 740.860535,390.790955 741.309937,391.113586 
	C742.751343,390.231750 744.339783,389.522858 745.611938,388.441803 
	C762.717468,373.905975 779.913086,359.471130 796.784241,344.667053 
	C803.387451,338.873016 809.211243,332.194550 815.442871,325.971832 
	C818.868164,322.551453 822.574463,320.030457 827.862305,321.911285 
	C833.158630,323.795135 834.742676,327.698730 835.641968,332.929230 
	C836.563538,338.289185 834.557739,341.364868 830.831604,344.726135 
	C814.403870,359.545746 798.413269,374.852875 781.880737,389.552002 
	C773.936890,396.614990 765.141968,402.720795 756.439697,409.473083 
z"/>
<path fill="#FFFEFC" opacity="1.000000" stroke="none" 
	d="
M890.168091,400.024872 
	C895.275879,400.310669 899.928894,400.550018 904.578430,400.842621 
	C906.236206,400.946960 907.936707,400.981415 909.530090,401.389771 
	C915.914185,403.026062 921.846619,405.785034 923.411438,412.787628 
	C924.927490,419.572357 920.486145,424.195038 915.460022,427.730133 
	C884.043030,449.826599 852.529053,471.785004 821.034668,493.771240 
	C816.666260,496.820801 811.980713,496.919159 807.292664,494.679962 
	C800.611694,491.488831 799.215759,483.748077 804.979187,478.627991 
	C810.547607,473.681183 816.929565,469.646484 822.979675,465.246216 
	C841.561951,451.731232 860.157776,438.234772 878.738342,424.717346 
	C879.125122,424.435913 879.391052,423.988281 880.388184,422.843689 
	C876.896179,421.792969 873.896729,420.426208 870.778931,420.056183 
	C865.502808,419.429962 860.148376,419.166626 854.833374,419.238159 
	C847.692810,419.334259 843.271362,415.408875 840.200989,409.728943 
	C837.336487,404.429962 840.192932,399.824066 843.571594,396.102478 
	C857.168091,381.126221 870.498901,365.827545 887.782104,354.769409 
	C889.871887,353.432312 891.884216,351.904602 893.693359,350.209991 
	C902.086426,342.348572 911.378113,341.069946 921.495300,346.432251 
	C926.614746,349.145630 931.956299,351.474976 936.911133,354.454193 
	C941.941895,357.479034 942.553040,360.557526 939.245361,365.230713 
	C934.565613,371.842712 929.714111,378.345520 924.668091,384.681610 
	C921.183350,389.057343 914.791687,390.273651 910.711365,387.836761 
	C906.515320,385.330658 904.350281,378.785583 906.050110,373.703949 
	C906.493408,372.378571 906.981628,371.068207 906.847900,369.305267 
	C894.436157,376.673798 884.451172,386.542328 874.494934,398.046143 
	C880.096619,398.765198 884.904297,399.382324 890.168091,400.024872 
z"/>
<path fill="#FFFEFC" opacity="1.000000" stroke="none" 
	d="
M827.169678,609.181519 
	C835.200378,603.272034 842.944092,597.575439 852.004761,590.909973 
	C847.219421,589.699524 843.829346,588.431824 840.342712,588.053528 
	C834.731567,587.444763 829.052979,587.484436 823.409546,587.139954 
	C812.967773,586.502686 806.962341,575.085510 812.670044,566.499878 
	C814.485413,563.769165 816.950500,561.455688 819.218201,559.045349 
	C820.924805,557.231323 823.121155,555.800293 824.532471,553.798950 
	C833.908752,540.503357 846.909546,531.293213 859.857117,521.987671 
	C865.336731,518.049377 869.939392,512.870300 877.152710,511.595703 
	C881.991577,510.740662 886.308960,511.120728 890.612915,513.508972 
	C896.257080,516.640930 902.192871,519.268127 907.719116,522.585754 
	C912.713318,525.583923 913.273865,528.655334 909.929199,533.400085 
	C905.265015,540.016418 900.428345,546.524902 895.381531,552.853088 
	C891.916199,557.198364 885.442261,558.368530 881.406677,555.901978 
	C877.021240,553.221558 875.002563,546.535156 877.002930,541.337952 
	C877.355469,540.421875 877.718628,539.505859 877.987122,538.564148 
	C878.061340,538.303711 877.812195,537.951050 877.379272,536.617920 
	C865.225098,544.866089 855.015320,554.611694 844.930359,566.632751 
	C856.045288,567.481384 866.016296,567.759583 875.818665,569.191650 
	C880.840454,569.925293 886.064453,571.967041 890.287109,574.782471 
	C895.320374,578.138489 896.046143,583.992798 892.492310,588.912964 
	C889.932800,592.456482 886.445068,595.527405 882.861389,598.098206 
	C868.823364,608.168396 854.581543,617.954590 840.417847,627.849670 
	C824.332825,639.087036 808.301392,650.402466 792.106873,661.479675 
	C789.908813,662.983154 786.940369,663.856262 784.257935,664.051758 
	C778.817749,664.448486 774.230469,661.367493 772.756042,657.045227 
	C770.939270,651.719238 773.606567,647.958130 777.433655,644.928772 
	C781.732910,641.525452 786.316772,638.481567 790.777771,635.282654 
	C802.812500,626.652832 814.847656,618.023743 827.169678,609.181519 
z"/>
<path fill="#FFFEFC" opacity="1.000000" stroke="none" 
	d="
M439.786102,559.823120 
	C437.942047,561.907410 436.351471,563.737793 433.845520,566.621643 
	C445.024170,567.477234 454.989075,567.795166 464.803619,569.179382 
	C469.685577,569.867798 474.793121,571.751343 478.898743,574.458862 
	C484.322632,578.035645 485.047821,584.090698 481.150726,589.345093 
	C478.640289,592.729858 475.263519,595.653992 471.800385,598.117188 
	C460.298981,606.297852 448.526062,614.095459 436.961761,622.189270 
	C418.433136,635.157410 400.044373,648.326416 381.439362,661.183167 
	C379.004791,662.865601 375.675690,663.863525 372.700867,664.017273 
	C367.698517,664.275757 363.591095,662.004028 361.744843,657.008179 
	C359.888031,651.983643 362.344849,648.159790 366.059570,645.247864 
	C371.160767,641.249146 376.578735,637.656067 381.834167,633.852112 
	C400.707855,620.191223 419.571442,606.516418 438.428711,592.832886 
	C438.812347,592.554443 439.073334,592.106873 440.049438,590.976257 
	C436.590485,589.903320 433.618011,588.509338 430.520447,588.125916 
	C425.252411,587.473877 419.890320,587.066040 414.595734,587.272583 
	C407.797546,587.537659 403.356964,583.942322 400.511780,578.704651 
	C399.147156,576.192566 399.683319,572.384399 400.108215,569.265259 
	C400.352661,567.471008 401.878754,565.684937 403.196747,564.229065 
	C416.547729,549.481323 429.787354,534.611755 446.522278,523.442017 
	C449.266296,521.610535 451.865448,519.512634 454.314392,517.297852 
	C461.438812,510.854553 472.193909,509.552734 480.661926,514.148071 
	C485.899109,516.990112 491.387360,519.401794 496.466309,522.493958 
	C501.783844,525.731323 502.303070,528.659180 498.760010,533.633667 
	C494.159424,540.092834 489.399139,546.446838 484.491180,552.675598 
	C481.033722,557.063477 474.690399,558.394897 470.582123,555.995605 
	C466.109955,553.383789 463.969666,546.748657 465.889862,541.544739 
	C466.367920,540.249329 466.739899,538.914673 466.620514,537.224121 
	C456.373413,543.202209 447.971527,551.104980 439.786102,559.823120 
z"/>
<path fill="#FFFCF9" opacity="1.000000" stroke="none" 
	d="
M286.800171,597.788818 
	C261.952728,615.253418 230.604477,620.946228 204.254639,617.670898 
	C204.625427,616.720886 205.028488,615.828796 205.326431,614.902893 
	C207.898346,606.910339 212.447052,603.763428 221.717270,603.673706 
	C274.088226,603.166992 318.649170,561.283875 324.207306,509.376740 
	C325.811554,494.394745 329.772583,479.664459 332.686340,464.825287 
	C332.826141,464.113129 333.288239,463.464172 334.293213,462.794128 
	C339.281311,477.159637 340.789337,491.960022 339.634338,506.949097 
	C336.663055,545.510193 317.615326,574.909790 286.800171,597.788818 
z"/>
<path fill="#FFFDFA" opacity="1.000000" stroke="none" 
	d="
M152.121155,395.150330 
	C180.788040,376.095703 214.271637,370.942413 248.505234,380.619904 
	C239.736694,384.487793 233.567169,390.964264 223.152588,390.423370 
	C170.201279,387.673492 123.937538,424.181427 113.573479,476.216919 
	C112.342209,482.398834 111.562927,488.752930 111.417358,495.046722 
	C111.258904,501.897980 108.740898,506.477509 102.131004,508.688080 
	C100.610367,509.196625 99.253990,510.196381 97.732399,511.018494 
	C92.822723,469.130646 107.552383,424.841003 152.121155,395.150330 
z"/>
<path fill="#FFFBF7" opacity="1.000000" stroke="none" 
	d="
M853.883728,334.524323 
	C856.747131,329.339752 861.489929,327.266144 865.351135,329.175049 
	C870.083496,331.514648 872.385986,336.362701 869.778259,341.240112 
	C867.510010,345.482574 863.951294,349.149109 860.460205,352.554871 
	C859.400940,353.588165 856.668823,352.906677 854.703003,353.010559 
	C854.780579,350.742218 854.440491,348.345520 855.084167,346.251160 
	C855.505432,344.880463 857.351440,343.947571 857.695312,343.626160 
	C856.278687,340.410767 855.059998,337.644623 853.883728,334.524323 
z"/>
<path fill="#FC8F10" opacity="1.000000" stroke="none" 
	d="
M542.437988,393.309570 
	C542.247620,394.561035 542.177002,395.392151 542.008972,396.203064 
	C540.799377,402.041534 539.953186,402.473053 533.157837,400.079041 
	C535.702271,393.636322 538.230774,387.233917 540.759277,380.831482 
	C541.343750,380.994049 541.928223,381.156616 542.512695,381.319183 
	C542.512695,385.172729 542.512695,389.026276 542.437988,393.309570 
z"/>
<path fill="#FC8700" opacity="1.000000" stroke="none" 
	d="
M641.054688,412.043213 
	C641.033508,411.676910 641.183594,411.477020 641.333679,411.277161 
	C641.492493,411.543610 641.651245,411.810120 641.697754,412.300415 
	C641.585510,412.524231 641.226013,412.209625 641.054688,412.043213 
z"/>
<path fill="#FC8700" opacity="1.000000" stroke="none" 
	d="
M601.820801,421.273682 
	C601.824951,421.572540 601.606384,421.650116 601.387817,421.727722 
	C601.457947,421.502594 601.528015,421.277496 601.820801,421.273682 
z"/>
<path fill="#FC8700" opacity="1.000000" stroke="none" 
	d="
M556.946411,462.906372 
	C557.033630,462.505493 557.374939,462.314423 557.716309,462.123352 
	C557.797485,462.405365 557.878662,462.687378 557.843750,463.240540 
	C557.551941,463.379852 557.376221,463.248016 556.946411,462.906372 
z"/>
<path fill="#FC9014" opacity="1.000000" stroke="none" 
	d="
M641.699036,569.749512 
	C639.730591,569.478516 638.142944,569.126953 635.718628,568.590027 
	C638.332214,561.836670 640.823120,555.400391 643.313965,548.964111 
	C643.982300,549.135620 644.650574,549.307190 645.318848,549.478699 
	C645.415222,556.340271 646.664429,563.330750 641.699036,569.749512 
z"/>
<path fill="#FC8801" opacity="1.000000" stroke="none" 
	d="
M300.252075,469.243439 
	C297.433289,478.960083 295.294037,488.953796 291.495209,498.270874 
	C289.724365,502.614105 285.276581,506.498871 281.117126,509.128021 
	C260.884155,521.916931 240.335434,534.206116 219.908752,546.689026 
	C218.466049,547.570618 217.105865,548.587341 216.077438,550.708130 
	C227.401001,551.866089 238.724564,553.023987 250.046814,554.181763 
	C250.100739,554.535706 250.272079,555.054871 250.175247,555.110901 
	C241.433945,560.172729 232.789261,565.426453 223.819595,570.049316 
	C221.862381,571.058044 218.613678,570.226013 216.179382,569.502686 
	C211.423218,568.089355 206.822021,566.154602 201.356384,564.140869 
	C198.834885,571.275208 196.365601,578.226196 193.922623,585.186340 
	C192.220032,590.037109 190.969269,595.097717 188.779968,599.715271 
	C184.835251,608.035156 177.922333,613.197815 168.638382,616.827759 
	C171.618011,601.468384 174.442566,586.908508 177.267120,572.348572 
	C177.067413,571.965515 176.867722,571.582397 176.668015,571.199341 
	C167.972229,579.325562 160.506088,574.505310 152.757553,570.217346 
	C140.836182,563.620178 128.587112,557.608704 116.745247,550.876953 
	C110.439514,547.292419 104.016747,546.379333 96.440338,547.080139 
	C95.674088,546.717163 95.544144,546.603516 95.414192,546.489868 
	C99.173676,537.984253 104.842812,531.418213 113.433281,527.297546 
	C119.114151,524.572571 124.540436,521.236328 129.819214,517.774963 
	C135.790085,513.859802 141.727676,511.897522 148.477539,515.676208 
	C149.144745,516.049744 150.075851,515.951843 151.301346,516.135071 
	C152.139359,513.772034 153.070038,511.513947 153.745956,509.182007 
	C157.910706,494.813324 162.060425,480.439941 166.130798,466.044281 
	C169.340836,454.691406 176.278152,446.483124 186.487457,440.690063 
	C235.964905,412.615173 285.388855,384.446045 334.835876,356.317535 
	C340.010254,353.374023 345.211700,350.477997 351.309052,347.049042 
	C350.703430,349.936798 350.407532,351.845245 349.897614,353.694733 
	C347.423126,362.669891 344.646820,371.569885 342.451202,380.611572 
	C340.418793,388.981201 335.541534,394.628998 328.151337,398.799774 
	C297.587341,416.049164 267.130066,433.487701 236.640793,450.869415 
	C235.120255,451.736298 233.667191,452.721558 232.694901,454.666595 
	C262.986725,441.388580 293.278534,428.110565 323.570343,414.832550 
	C324.074982,415.106079 324.579590,415.379639 325.084198,415.653168 
	C321.350006,426.533661 318.142242,437.641418 313.596283,448.171448 
	C312.004028,451.859619 307.434174,454.634705 303.683197,456.950867 
	C290.805939,464.902344 277.673462,472.439667 264.680847,480.206146 
	C262.803528,481.328369 261.159302,482.840576 259.407166,484.172272 
	C259.626160,484.536926 259.845184,484.901581 260.064178,485.266205 
	C272.973114,479.694458 285.882019,474.122711 299.322815,468.678406 
	C299.987152,468.951721 300.119598,469.097595 300.252075,469.243439 
z"/>
<path fill="#FC8801" opacity="1.000000" stroke="none" 
	d="
M299.669128,468.575867 
	C299.868134,468.547119 300.252655,468.748352 300.444641,469.096497 
	C300.119598,469.097595 299.987152,468.951721 299.669128,468.575867 
z"/>
<path fill="#FC8801" opacity="1.000000" stroke="none" 
	d="
M95.991165,547.009766 
	C95.862968,547.084717 95.547653,546.980713 95.323265,546.683350 
	C95.544144,546.603516 95.674088,546.717163 95.991165,547.009766 
z"/>
</svg>